<svg id="Capa_1" data-name="Capa 1" xmlns="http://www.w3.org/2000/svg" viewBox="0 0 968.43 975.97"><defs><style>.cls-1,.cls-12,.cls-5,.cls-6{fill:none;}.cls-1,.cls-2,.cls-3,.cls-5,.cls-6,.cls-7{stroke:#1d1d1b;}.cls-1,.cls-11,.cls-12,.cls-2,.cls-3,.cls-5,.cls-6,.cls-7{stroke-miterlimit:10;}.cls-1{stroke-width:6px;}.cls-2,.cls-7{fill:#fff;}.cls-2,.cls-3,.cls-5{stroke-width:3px;}.cls-3{fill:#fdfdfd;}.cls-4{fill:#117834;}.cls-5,.cls-6{stroke-linecap:round;}.cls-6,.cls-7{stroke-width:2px;}.cls-8{fill:#1d1d1b;}.cls-9{fill:#793811;}.cls-10{fill:#31aa4e;}.cls-11{fill:#ffed00;}.cls-11,.cls-12{stroke:#e6007e;stroke-width:0.5px;}</style></defs><g id="Logo_vectorizado" data-name="Logo vectorizado"><ellipse class="cls-1" cx="484.22" cy="487.98" rx="481.22" ry="484.98"/><circle class="cls-1" cx="484.28" cy="489.16" r="325.87"/><path class="cls-2" d="M501.31,270.94c-.71.58-141.23,210.38-141.23,210.38s301.94,2.91,301.16,2.52-156.58-223-156.58-223Z" transform="translate(-15.03 -12.35)"/><polyline class="cls-3" points="602.8 451.63 708.47 598.82 264.09 600.11 361.12 443.98 371.4 452.47 434.59 379.5 445.43 391.89 484.59 340.92 522.72 391.76 538.2 376.28 602.8 451.63"/><path class="cls-4" d="M430.77,415.9l16.54,4.44a2.86,2.86,0,0,0,3-1l7.25-9.23s18.12,11.33,18.51,11.07,5.32-6.72,6.89-8.76a.9.9,0,0,1,1.14-.25c2.73,1.44,13,6.66,16.92,8.62a2.88,2.88,0,0,0,2.89-.16l17.43-11.55a1.3,1.3,0,0,1,1.44,0l24.61,16.76a.56.56,0,0,0,.68,0c2.59-2.31,20.18-17.95,20.06-17.59s54.64,61.34,57.86,64.92c.1.12.18.23.27.36l85,130.91a2.88,2.88,0,0,1-2.38,4.45L293,614.14a2.88,2.88,0,0,1-2.44-4.46l96.11-146a2.87,2.87,0,0,1,2.43-1.3h0a2.91,2.91,0,0,0,2.22-1Z" transform="translate(-15.03 -12.35)"/><path class="cls-5" d="M447.92,420.32c1-1.16,18.77-24.22,18.77-24.22" transform="translate(-15.03 -12.35)"/><line class="cls-5" x1="537.3" y1="411.19" x2="522.31" y2="391.17"/><path class="cls-2" d="M496.53,604.35s-41-29-41-49.87,55.23-28.38,41.81-41.8-32.76-13.41-23.09-23.09c9.53-9.52,30.78-16.43-34.49-57.73a.46.46,0,0,1,.38-.82c18.29,6.19,100.88,34.86,115.78,52.73,16.78,20.13,12.91,25,5.68,33s-1.29,12.38,4.13,16,15.93,7.87,13.8,16.64c-1.49,6.15.13,13.81,9.94,17.94s88.77,39.48,88,39.48S496.53,604.35,496.53,604.35Z" transform="translate(-15.03 -12.35)"/><path class="cls-6" d="M501.27,540.45s-20.8,10.26-6.87,24.39a337.79,337.79,0,0,0,26.42,24.1" transform="translate(-15.03 -12.35)"/><path class="cls-6" d="M534.76,548.68s16.26,12.87,8.22,22,3.29,17.8,3.29,17.8l19,18.1" transform="translate(-15.03 -12.35)"/><path class="cls-6" d="M563.6,547.32s5.13,4.94,3.29,8.52c-2.31,4.49-4.45,12.19,4,18.39s44,30.38,44,30.38" transform="translate(-15.03 -12.35)"/><path class="cls-7" d="M382.73,463.32H626.4l43.16,72.58H638V515.82a20.11,20.11,0,0,0-1.77-8.26c-2.48-5.5-7.73-13.85-16.81-13.85l-1.11,0a16.56,16.56,0,0,0-15.54,16.66V535.9H581.11V512.66A13.07,13.07,0,0,0,576,502.24a22.78,22.78,0,0,0-14-4.66,19.31,19.31,0,0,0-9.94,2.5,14.29,14.29,0,0,0-6.9,12.4V535.9H520.34V508.42s.7-14.9-17.84-14.9-18.16,13.93-18.16,13.93V535.9H462.66V509.56a15.18,15.18,0,0,0-2.14-7.95c-2.24-3.63-6.8-7.51-16-7.51-17.42,0-17.61,13.74-17.61,13.74V535.9H405.18V508s.19-13.93-18-13.93S368.79,508,368.79,508V535.9H335.5Z" transform="translate(-15.03 -12.35)"/><rect class="cls-8" x="379.12" y="463.74" width="14.32" height="6.77"/><rect class="cls-8" x="418.51" y="459.77" width="18.1" height="3.97"/><rect class="cls-8" x="448.7" y="470.52" width="18.77" height="7.45"/><rect class="cls-8" x="473.96" y="459.77" width="27.29" height="7.35"/><rect class="cls-8" x="508.6" y="470.52" width="14.32" height="3.73"/><rect class="cls-8" x="397.02" y="499.65" width="7.35" height="3.68"/><rect class="cls-8" x="393.44" y="477.97" width="14.42" height="7.26"/><rect class="cls-8" x="450.93" y="488.71" width="10.84" height="3.71"/><rect class="cls-8" x="566.38" y="474.24" width="13.94" height="3.73"/><rect class="cls-8" x="580.31" y="460.26" width="18.1" height="4.84"/><rect class="cls-8" x="534.05" y="456.68" width="17.61" height="6.77"/><rect class="cls-8" x="569.76" y="485.13" width="14.23" height="7.29"/><rect class="cls-8" x="515.76" y="485.13" width="10.65" height="3.58"/><rect class="cls-8" x="337.31" y="499.65" width="9.29" height="3.68"/><path class="cls-8" d="M787,617.71c0-6-2.71-9.26-5.42-11a13.11,13.11,0,0,0-7.24-2.06H750.85L518.41,263.87s16.42-25.5,17.16-26.38c1-1.23,4.7-6.75-5.36-18.37s-15.11-1.05-15.11-1.05l-13.8,20.66h0l-22-32.29c-1.13-1.65-2.18-3.35-3.21-5.05-2-3.21-7.18-9.58-14.84-1.93-9.85,9.85-5.15,17.65-5.15,17.65l29.39,45.26L256.05,605.43l-6.88,0-14.45,0s-16.83-1.8-16.83,15.81,11.41,16.9,11.41,16.9H755.63C790.72,638.22,787,629.67,787,617.71ZM293.82,605.19,502.49,288.8,710.85,605.19Z" transform="translate(-15.03 -12.35)"/><path class="cls-9" d="M61.48,427.27l76.73-10-2.31,14.25-34.6,3.59c-9.26,1-18.53,1.86-27.67,2.1l0,.27c8.48,3.11,17.17,6.94,25.53,10.85l31.67,14.78-2.26,14L59.09,442Z" transform="translate(-15.03 -12.35)"/><path class="cls-9" d="M91.56,563.3l-2.44-25.14-22.2,2.15,2.74,28.2-10.8,1-4-41.36L128.63,521l3.87,39.81-10.81,1-2.59-26.65-19.35,1.88,2.44,25.14Z" transform="translate(-15.03 -12.35)"/><path class="cls-9" d="M95.92,684.75a68.07,68.07,0,0,1-11.06-18.64c-4-10.47-4.47-19.61-.94-27.91s11.47-15.41,22.48-19.56c23.22-8.76,41.89,1.77,49.72,22.21,2.88,7.54,3.63,13.95,3.36,17.44l-11,1.18c.21-3.83-.26-8.32-2.66-14.61-5.06-13.2-16.95-20-34.08-13.47-16.66,6.38-21.59,18.7-16.84,31.11,1.46,3.82,3,6.38,4.16,7.48l17.9-6.86-4.19-10.94,9.66-3.69,8.72,22.77Z" transform="translate(-15.03 -12.35)"/><path class="cls-9" d="M152.05,745.26,132.26,753l-8.09-10.73,72.41-27.12,9.92,13.13-46.05,62.07-8.34-11,12.74-17.1Zm19.54,9.41,11.21-14.85c2.95-3.83,6.71-8.13,9.72-11.71l-.16-.22c-4.29,2-9.54,4.5-13.84,6.23l-17.35,6.75Z" transform="translate(-15.03 -12.35)"/><path class="cls-9" d="M300.43,814.92a113.42,113.42,0,0,1,17.86,7.69c11.08,5.86,17.44,12.22,20.5,19.71,3.51,8.33,3,18.36-3.18,30.09C329,884.84,320.5,891.5,311.7,893.76s-19.7.14-31.32-6a128.6,128.6,0,0,1-14-8.44Zm-17.81,61.9A41.35,41.35,0,0,0,288,880c13.2,7.05,25.91,3.74,35.22-13.86,7.75-14.55,5-26.76-8.45-33.87a37,37,0,0,0-7-3Z" transform="translate(-15.03 -12.35)"/><path class="cls-9" d="M425.59,904.83,401,899.15l-5,21.73,27.6,6.37-2.44,10.58-40.49-9.34,16.66-72.25,39,9-2.44,10.58-26.08-6-4.37,19L428,894.42Z" transform="translate(-15.03 -12.35)"/><path class="cls-9" d="M546.24,868.05l39.24-6.56,1.79,10.71-26.2,4.38,3.45,20.68,24.41-4.08,1.76,10.53-24.41,4.08L571.5,939l-13,2.18Z" transform="translate(-15.03 -12.35)"/><path class="cls-9" d="M633,848.61a105.76,105.76,0,0,1,16.73-9c9-4,16.23-5.29,22.36-3.43,5.24,1.58,9.19,5.4,11.71,11.17,3.71,8.49.94,16.86-4.61,22.3l.11.26c5.76-.34,10.58,3.07,15.27,9.39,5.66,7.59,10.81,14.42,13.21,16.4l-12.47,5.44c-1.88-1.51-6.06-6.74-11.39-14.28-5.65-8.07-10-9.61-16.67-6.81l-5.2,2.27,12.23,28-12,5.25Zm25.18,24.86,6.08-2.66c8-3.48,10.87-10.24,7.9-17-3.14-7.2-9.32-9-17.19-5.62a31.06,31.06,0,0,0-6.34,3.44Z" transform="translate(-15.03 -12.35)"/><path class="cls-9" d="M761.55,837.06l8.31,19.56L759.36,865l-29.13-71.63,12.85-10.27,63.33,44.29L795.59,836l-17.44-12.25Zm8.87-19.8-15.16-10.79c-3.92-2.85-8.32-6.47-12-9.39l-.21.17c2.09,4.24,4.76,9.41,6.62,13.66l7.22,17.15Z" transform="translate(-15.03 -12.35)"/><path class="cls-9" d="M851.84,778.9l-60.39-43,8.31-11.67,36,4.24a235.55,235.55,0,0,1,26.65,4.73l.11-.24c-8.44-5-16.9-10.5-26.6-17.41L816,701.39l7-9.84,60.39,43-7.72,10.83L839.2,741a236.41,236.41,0,0,1-27.27-4.77l-.14.29c7.89,5,16.19,10.57,26.87,18.18l20.19,14.38Z" transform="translate(-15.03 -12.35)"/><path class="cls-9" d="M930.25,624.92c.37,3.26-.35,9.59-3,17-7.35,20.62-25.41,28.13-46.76,20.52-24.13-8.61-31.12-28.83-24.36-47.81,2.63-7.36,5.94-12,8-13.86l9,6.14a29.92,29.92,0,0,0-6.52,10.87c-4.44,12.45.43,25.07,17.9,31.3,16.42,5.85,28.3.48,33.1-13a35.18,35.18,0,0,0,2.14-12.77Z" transform="translate(-15.03 -12.35)"/><path class="cls-9" d="M872.44,540.47l73.64,8.63-1.54,13.13-73.63-8.63Z" transform="translate(-15.03 -12.35)"/><path class="cls-9" d="M926.42,468.93l21,3.38,1.52,13.35-76.14-13.47-1.86-16.35,71.22-30,1.55,13.76L924,447.81Zm-12-18.05L897.19,458c-4.5,1.8-9.92,3.59-14.34,5.14l0,.27c4.7.49,10.51,1,15.09,1.67l18.37,3Z" transform="translate(-15.03 -12.35)"/><path class="cls-10" d="M249.22,215.56c-1,3.05-4.23,8.35-9.62,13.77-15,15.09-34.29,13.92-50.35-2.07-18.16-18.08-16.19-39-2.37-52.91,5.36-5.38,10.24-8.09,12.81-8.82l5.58,9.33A28.45,28.45,0,0,0,195,181.67c-9.06,9.11-9.84,22.4,3.31,35.49,12.35,12.29,25.21,12.67,35,2.82a33.42,33.42,0,0,0,7.13-10.39Z" transform="translate(-15.03 -12.35)"/><path class="cls-10" d="M283.54,167.5l5.79,20.4-11.19,6.74-19.95-74.53,13.71-8.25,56.4,52.58-11.53,6.94-15.53-14.53Zm10.94-18.17L281,136.56c-3.47-3.36-7.33-7.56-10.55-11l-.23.14c1.54,4.46,3.53,9.93,4.84,14.36l5,17.89Z" transform="translate(-15.03 -12.35)"/><path class="cls-10" d="M411.6,105.11c-2.77-8.78-6.06-19.38-8.4-28.61l-.3.08c.19,9,0,19.12-.42,28.22l-1.44,33-9.28,2.45-16.55-27.64c-4.76-8-9.62-16.84-13.59-25.11l-.25.06c2.13,9.06,4.56,20,6.53,29.55l6,28.76-11.38,3L348.33,75.91l15.48-4.09,16.12,26.62c4.73,8.06,9,15.71,12.74,23.32l.29-.07c-.38-8.35-.42-17.31-.18-26.68l1.29-31.17,15.37-4.06,23,70.61-11.89,3.14Z" transform="translate(-15.03 -12.35)"/><path class="cls-10" d="M476.22,54.24a100.07,100.07,0,0,1,18.46-1.19c9.15.15,16,2.15,20.47,6.26,4.19,3.73,6.63,9.58,6.52,16.36-.12,7.16-2.35,12.73-6.27,16.64-5.15,5.25-13.11,7.66-21.61,7.52a30,30,0,0,1-5.55-.48l-.46,28.24L475,127.38ZM488.41,89a22.64,22.64,0,0,0,5.42.58c9.29.15,14.92-4.87,15.06-13.51.12-7.81-4.6-12.73-13.43-12.87a29.56,29.56,0,0,0-6.64.51Z" transform="translate(-15.03 -12.35)"/><path class="cls-10" d="M590.59,65.19l-16,72.39L562,134.81l16-72.39Z" transform="translate(-15.03 -12.35)"/><path class="cls-10" d="M618.24,150.07l31.23-67.24L662.1,88.7l2,35.94a236.71,236.71,0,0,1-.07,26.92l.25.06c3.35-9.19,7.26-18.52,12.28-29.32l10.28-22.12,10.65,4.94-31.24,67.24-11.72-5.44-1.9-36.5a240.8,240.8,0,0,1,0-27.53l-.3-.09c-3.44,8.67-7.44,17.84-13,29.74L628.89,155Z" transform="translate(-15.03 -12.35)"/><path class="cls-10" d="M746,228.09a64.2,64.2,0,0,1-18.25-10.55c-8.35-7-13-14.63-13.8-23.48s2.77-18.86,10.39-27.83c16-18.92,37.13-19.07,53.42-5.38,6,5.05,9.64,10.19,11,13.31l-9,6.4c-1.6-3.38-4.1-7-9.1-11.22-10.53-8.84-24-8.84-35.81,5.2-11.47,13.65-10,26.65-.13,35,3,2.56,5.58,4,7.08,4.37l12.34-14.67-8.72-7.33,6.65-7.92,18.15,15.25Z" transform="translate(-15.03 -12.35)"/><path class="cls-11" d="M542,227.58" transform="translate(-15.03 -12.35)"/><path class="cls-11" d="M479.42,323.78" transform="translate(-15.03 -12.35)"/><path class="cls-11" d="M455.11,215.58" transform="translate(-15.03 -12.35)"/><path class="cls-11" d="M516.09,309.45" transform="translate(-15.03 -12.35)"/><path class="cls-12" d="M529.05,197.19" transform="translate(-15.03 -12.35)"/><path class="cls-12" d="M466.34,291.06" transform="translate(-15.03 -12.35)"/><path class="cls-12" d="M465.76,186.55" transform="translate(-15.03 -12.35)"/><path class="cls-12" d="M533.73,286.33" transform="translate(-15.03 -12.35)"/></g></svg>